<svg width="58" height="86" viewBox="0 0 58 86" fill="none" xmlns="http://www.w3.org/2000/svg">
<path fill-rule="evenodd" clip-rule="evenodd" d="M21.5 28.6667C21.5 24.7086 24.7086 21.5 28.6667 21.5C32.6247 21.5 35.8333 24.7086 35.8333 28.6667V57.3333C35.8333 61.2914 32.6247 64.5 28.6667 64.5C24.7086 64.5 21.5 61.2914 21.5 57.3333V28.6667ZM34.4 28.6667V57.3333C34.4 60.4998 31.8331 63.0667 28.6667 63.0667C25.5002 63.0667 22.9333 60.4998 22.9333 57.3333V28.6667C22.9333 25.5002 25.5002 22.9333 28.6667 22.9333C31.8331 22.9333 34.4 25.5002 34.4 28.6667Z" fill="#111111"/>
<path fill-rule="evenodd" clip-rule="evenodd" d="M28.6667 17.2C22.3338 17.2 17.2 22.3338 17.2 28.6667V57.3333C17.2 63.6662 22.3338 68.8 28.6667 68.8C34.9995 68.8 40.1333 63.6662 40.1333 57.3333V28.6667C40.1333 22.3338 34.9995 17.2 28.6667 17.2ZM38.7 57.3333V28.6667C38.7 23.1254 34.2079 18.6333 28.6667 18.6333C23.1254 18.6333 18.6333 23.1254 18.6333 28.6667V57.3333C18.6333 62.8746 23.1254 67.3667 28.6667 67.3667C34.2079 67.3667 38.7 62.8746 38.7 57.3333Z" fill="#111111"/>
<path fill-rule="evenodd" clip-rule="evenodd" d="M12.9 28.6667C12.9 19.959 19.959 12.9 28.6667 12.9C37.3744 12.9 44.4333 19.959 44.4333 28.6667V57.3333C44.4333 66.041 37.3744 73.1 28.6667 73.1C19.959 73.1 12.9 66.041 12.9 57.3333V28.6667ZM43 28.6667V57.3333C43 65.2494 36.5827 71.6667 28.6667 71.6667C20.7506 71.6667 14.3333 65.2494 14.3333 57.3333V28.6667C14.3333 20.7506 20.7506 14.3333 28.6667 14.3333C36.5827 14.3333 43 20.7506 43 28.6667Z" fill="#111111"/>
<path fill-rule="evenodd" clip-rule="evenodd" d="M28.6667 8.6C17.5842 8.6 8.6 17.5842 8.6 28.6667V57.3333C8.6 68.4158 17.5842 77.4 28.6667 77.4C39.7492 77.4 48.7333 68.4158 48.7333 57.3333V28.6667C48.7333 17.5842 39.7492 8.6 28.6667 8.6ZM47.3 57.3333V28.6667C47.3 18.3758 38.9576 10.0333 28.6667 10.0333C18.3758 10.0333 10.0333 18.3758 10.0333 28.6667V57.3333C10.0333 67.6242 18.3758 75.9667 28.6667 75.9667C38.9576 75.9667 47.3 67.6242 47.3 57.3333Z" fill="#111111"/>
<path fill-rule="evenodd" clip-rule="evenodd" d="M4.3 28.6667C4.3 15.2093 15.2093 4.3 28.6667 4.3C42.124 4.3 53.0333 15.2093 53.0333 28.6667V57.3333C53.0333 70.7907 42.124 81.7 28.6667 81.7C15.2093 81.7 4.3 70.7907 4.3 57.3333V28.6667ZM51.6 28.6667V57.3333C51.6 69.9991 41.3324 80.2667 28.6667 80.2667C16.0009 80.2667 5.73333 69.9991 5.73333 57.3333V28.6667C5.73333 16.0009 16.0009 5.73333 28.6667 5.73333C41.3324 5.73333 51.6 16.0009 51.6 28.6667Z" fill="#111111"/>
<path fill-rule="evenodd" clip-rule="evenodd" d="M0 28.6667C0 12.8345 12.8345 0 28.6667 0C44.4988 0 57.3333 12.8345 57.3333 28.6667V57.3333C57.3333 73.1655 44.4988 86 28.6667 86C12.8345 86 0 73.1655 0 57.3333V28.6667ZM55.9 28.6667V57.3333C55.9 72.3739 43.7072 84.5667 28.6667 84.5667C13.6261 84.5667 1.43333 72.3739 1.43333 57.3333V28.6667C1.43333 13.6261 13.6261 1.43333 28.6667 1.43333C43.7072 1.43333 55.9 13.6261 55.9 28.6667Z" fill="#111111"/>
</svg>
