<svg width="1024" height="1024" viewBox="0 0 1024 1024" fill="none" xmlns="http://www.w3.org/2000/svg">
<circle cx="512" cy="512" r="512" fill="white"/>
<g filter="url(#filter0_f_30_2)">
<path d="M576.024 779.763L517.285 703.053C505.647 707.352 493.018 710.643 479.398 712.926C466.178 715.211 453.768 716.304 442.168 716.204C397.77 715.82 359.249 706.487 326.606 688.204C294.363 669.925 269.381 644.508 251.662 611.953C234.343 579.402 225.87 541.528 226.243 498.329C226.627 453.931 235.961 415.41 254.243 382.767C272.926 350.127 298.745 324.95 331.699 307.234C364.654 289.518 402.93 280.849 446.528 281.225C489.727 281.599 527.449 290.725 559.696 308.605C592.346 326.088 617.531 351.106 635.25 383.661C652.973 415.815 661.642 454.091 661.258 498.49C660.982 530.489 655.74 558.444 645.533 582.357C635.729 605.873 621.948 626.755 604.19 645.002L659.97 716.887L576.024 779.763ZM440.655 613.587C466.654 613.812 487.705 607.994 503.808 596.132C519.912 584.271 531.641 569.372 538.996 551.435C546.351 533.498 550.107 515.53 550.263 497.53C550.415 479.931 546.965 462.5 539.914 445.239C533.267 427.581 522.191 413.084 506.689 401.75C491.59 390.019 471.241 384.043 445.642 383.822C419.643 383.597 398.591 389.415 382.488 401.276C366.789 412.741 355.261 427.442 347.906 445.379C340.95 463.32 337.393 481.489 337.234 499.889C337.079 517.888 340.325 535.717 346.972 553.375C354.023 570.637 365.1 584.933 380.203 596.264C395.705 607.598 415.856 613.373 440.655 613.587ZM724.542 724.045C707.743 723.9 693.188 718.574 680.879 708.067C668.969 697.564 663.102 682.113 663.279 661.713C663.459 640.914 669.797 624.968 682.293 613.876C695.193 602.387 709.842 596.713 726.242 596.855C742.641 596.997 756.792 602.719 768.695 614.023C780.598 625.326 786.459 641.377 786.279 662.177C786.1 682.976 779.965 698.523 767.875 708.819C755.786 719.115 741.342 724.19 724.542 724.045Z" fill="black"/>
</g>
<defs>
<filter id="filter0_f_30_2" x="219.837" y="275.337" width="573.71" height="510.235" filterUnits="userSpaceOnUse" color-interpolation-filters="sRGB">
<feFlood flood-opacity="0" result="BackgroundImageFix"/>
<feBlend mode="normal" in="SourceGraphic" in2="BackgroundImageFix" result="shape"/>
<feGaussianBlur stdDeviation="2" result="effect1_foregroundBlur_30_2"/>
</filter>
</defs>
</svg>
