<svg width="86" height="86" viewBox="0 0 86 86" fill="none" xmlns="http://www.w3.org/2000/svg">
<mask id="path-1-inside-1_1_12087" fill="white">
<path d="M85.9993 21.8642C85.9993 9.78895 76.2103 0 64.1351 0C52.0598 0 42.2708 9.78895 42.2708 21.8642V43.7284H64.1351C76.2103 43.7284 85.9993 33.9395 85.9993 21.8642Z"/>
<path d="M81.6265 24.0506C81.6265 13.1829 72.8164 4.37284 61.9487 4.37284C51.0809 4.37284 42.2709 13.1829 42.2709 24.0506L42.2708 43.7284H61.9487C72.8164 43.7284 81.6265 34.9184 81.6265 24.0506Z"/>
<path d="M77.2536 26.2371C77.2536 16.5768 69.4225 8.74569 59.7622 8.74569C50.102 8.74569 42.2709 16.5768 42.2709 26.2371L42.2708 43.7284L59.7622 43.7285C69.4225 43.7285 77.2536 35.8973 77.2536 26.2371Z"/>
<path d="M72.8808 28.4235C72.8808 19.9708 66.0285 13.1185 57.5758 13.1185C49.1231 13.1185 42.2709 19.9708 42.2709 28.4235L42.2708 43.7284H57.5758C66.0285 43.7284 72.8808 36.8762 72.8808 28.4235Z"/>
<path d="M68.5079 30.6099C68.5079 23.3647 62.6346 17.4914 55.3894 17.4914C48.1442 17.4914 42.2709 23.3647 42.2709 30.6099L42.2708 43.7284H55.3894C62.6346 43.7284 68.5079 37.8551 68.5079 30.6099Z"/>
<path d="M64.1351 32.7963C64.1351 26.7587 59.2406 21.8642 53.203 21.8642C47.1653 21.8642 42.2709 26.7587 42.2709 32.7963L42.2708 43.7284H53.203C59.2406 43.7284 64.1351 38.834 64.1351 32.7963Z"/>
<path d="M59.7622 34.9828C59.7622 30.1526 55.8467 26.2371 51.0165 26.2371C46.1864 26.2371 42.2709 30.1526 42.2709 34.9828L42.2708 43.7284H51.0165C55.8467 43.7284 59.7622 39.8129 59.7622 34.9828Z"/>
<path d="M85.9993 64.1358C85.9993 76.2111 76.2104 86 64.1351 86C52.0598 86 42.2709 76.2111 42.2709 64.1358V42.2716H64.1351C76.2104 42.2716 85.9993 52.0605 85.9993 64.1358Z"/>
<path d="M81.6265 61.9494C81.6265 72.8171 72.8164 81.6272 61.9487 81.6272C51.0809 81.6272 42.2709 72.8171 42.2709 61.9494L42.2709 42.2716L61.9487 42.2716C72.8164 42.2716 81.6265 51.0816 81.6265 61.9494Z"/>
<path d="M77.2536 59.7629C77.2536 69.4232 69.4225 77.2543 59.7623 77.2543C50.102 77.2543 42.2709 69.4232 42.2709 59.7629L42.2709 42.2716L59.7623 42.2716C69.4225 42.2716 77.2536 50.1027 77.2536 59.7629Z"/>
<path d="M72.8808 57.5765C72.8808 66.0292 66.0285 72.8815 57.5758 72.8815C49.1231 72.8815 42.2709 66.0292 42.2709 57.5765L42.2709 42.2716L57.5758 42.2716C66.0285 42.2716 72.8808 49.1238 72.8808 57.5765Z"/>
<path d="M68.5079 55.3901C68.5079 62.6353 62.6346 68.5086 55.3894 68.5086C48.1442 68.5086 42.2709 62.6353 42.2709 55.3901L42.2709 42.2716L55.3894 42.2716C62.6346 42.2716 68.5079 48.1449 68.5079 55.3901Z"/>
<path d="M64.1351 53.2037C64.1351 59.2413 59.2406 64.1358 53.203 64.1358C47.1653 64.1358 42.2709 59.2413 42.2709 53.2037L42.2709 42.2716L53.203 42.2716C59.2406 42.2716 64.1351 47.166 64.1351 53.2037Z"/>
<path d="M59.7623 51.0173C59.7623 55.8474 55.8467 59.7629 51.0166 59.7629C46.1865 59.7629 42.2709 55.8474 42.2709 51.0173L42.2709 42.2716L51.0166 42.2716C55.8467 42.2716 59.7623 46.1871 59.7623 51.0173Z"/>
<path d="M1.60787e-05 21.8642C1.60787e-05 9.78895 9.78896 0 21.8642 0C33.9395 0 43.7285 9.78895 43.7285 21.8642V43.7284H21.8642C9.78896 43.7284 1.60787e-05 33.9395 1.60787e-05 21.8642Z"/>
<path d="M4.37285 24.0506C4.37285 13.1829 13.1829 4.37284 24.0506 4.37284C34.9184 4.37284 43.7285 13.1829 43.7285 24.0506L43.7285 43.7284H24.0506C13.1829 43.7284 4.37285 34.9184 4.37285 24.0506Z"/>
<path d="M8.74569 26.2371C8.74569 16.5768 16.5768 8.74569 26.2371 8.74569C35.8973 8.74569 43.7285 16.5768 43.7285 26.2371L43.7285 43.7284L26.2371 43.7285C16.5768 43.7285 8.74569 35.8973 8.74569 26.2371Z"/>
<path d="M13.1185 28.4235C13.1185 19.9708 19.9708 13.1185 28.4235 13.1185C36.8762 13.1185 43.7285 19.9708 43.7285 28.4235L43.7285 43.7284H28.4235C19.9708 43.7284 13.1185 36.8762 13.1185 28.4235Z"/>
<path d="M17.4914 30.6099C17.4914 23.3647 23.3647 17.4914 30.6099 17.4914C37.8551 17.4914 43.7285 23.3647 43.7285 30.6099L43.7285 43.7284H30.6099C23.3647 43.7284 17.4914 37.8551 17.4914 30.6099Z"/>
<path d="M21.8642 32.7963C21.8642 26.7587 26.7587 21.8642 32.7963 21.8642C38.834 21.8642 43.7285 26.7587 43.7285 32.7963L43.7285 43.7284H32.7963C26.7587 43.7284 21.8642 38.834 21.8642 32.7963Z"/>
<path d="M26.2371 34.9828C26.2371 30.1526 30.1527 26.2371 34.9828 26.2371C39.8129 26.2371 43.7285 30.1526 43.7285 34.9828L43.7285 43.7284H34.9828C30.1527 43.7284 26.2371 39.8129 26.2371 34.9828Z"/>
<path d="M0 64.1358C0 76.2111 9.78895 86 21.8642 86C33.9395 86 43.7284 76.2111 43.7284 64.1358V42.2716H21.8642C9.78895 42.2716 0 52.0605 0 64.1358Z"/>
<path d="M4.37283 61.9494C4.37283 72.8171 13.1829 81.6272 24.0506 81.6272C34.9184 81.6272 43.7284 72.8171 43.7284 61.9494L43.7284 42.2716L24.0506 42.2716C13.1829 42.2716 4.37283 51.0816 4.37283 61.9494Z"/>
<path d="M8.74568 59.7629C8.74568 69.4232 16.5768 77.2543 26.2371 77.2543C35.8973 77.2543 43.7284 69.4232 43.7284 59.7629L43.7284 42.2716L26.2371 42.2716C16.5768 42.2716 8.74568 50.1027 8.74568 59.7629Z"/>
<path d="M13.1185 57.5765C13.1185 66.0292 19.9708 72.8815 28.4235 72.8815C36.8762 72.8815 43.7284 66.0292 43.7284 57.5765L43.7284 42.2716L28.4235 42.2716C19.9708 42.2716 13.1185 49.1238 13.1185 57.5765Z"/>
<path d="M17.4914 55.3901C17.4914 62.6353 23.3647 68.5086 30.6099 68.5086C37.8551 68.5086 43.7284 62.6353 43.7284 55.3901L43.7284 42.2716L30.6099 42.2716C23.3647 42.2716 17.4914 48.1449 17.4914 55.3901Z"/>
<path d="M21.8642 53.2037C21.8642 59.2413 26.7587 64.1358 32.7963 64.1358C38.834 64.1358 43.7284 59.2413 43.7284 53.2037L43.7284 42.2716L32.7963 42.2716C26.7587 42.2716 21.8642 47.166 21.8642 53.2037Z"/>
<path d="M26.2371 51.0173C26.2371 55.8474 30.1526 59.7629 34.9827 59.7629C39.8129 59.7629 43.7284 55.8474 43.7284 51.0173L43.7284 42.2716L34.9827 42.2716C30.1526 42.2716 26.2371 46.1871 26.2371 51.0173Z"/>
</mask>
<path d="M42.2708 43.7284H41.7708V44.2284H42.2708V43.7284ZM42.2709 24.0506L42.7709 24.0506V24.0506H42.2709ZM42.2709 26.2371H42.7709H42.2709ZM59.7622 43.7285V44.2285V43.7285ZM42.2709 28.4235H42.7709H42.2709ZM42.2709 30.6099L42.7709 30.6099V30.6099H42.2709ZM42.2709 32.7963L42.7709 32.7963V32.7963H42.2709ZM42.2709 34.9828L42.7709 34.9828V34.9828H42.2709ZM42.2709 42.2716V41.7716H41.7709L41.7709 42.2716H42.2709ZM42.2709 61.9494H42.7709H42.2709ZM61.9487 42.2716V42.7716V42.2716ZM42.2709 59.7629H42.7709H42.2709ZM59.7623 42.2716V42.7716V42.2716ZM42.2709 57.5765H42.7709H42.2709ZM57.5758 42.2716V42.7716V42.2716ZM42.2709 55.3901H42.7709H42.2709ZM55.3894 42.2716V42.7716V42.2716ZM42.2709 53.2037H42.7709H42.2709ZM53.203 42.2716V42.7716V42.2716ZM42.2709 51.0173H42.7709H42.2709ZM51.0166 42.2716L51.0166 42.7716H51.0166V42.2716ZM43.7285 43.7284V44.2284H44.2285V43.7284H43.7285ZM43.7285 24.0506H43.2285V24.0506L43.7285 24.0506ZM43.7285 26.2371H43.2285H43.7285ZM26.2371 43.7285V44.2285V43.7285ZM43.7285 28.4235H43.2285H43.7285ZM43.7285 30.6099H43.2285V30.6099L43.7285 30.6099ZM43.7285 32.7963H43.2285V32.7963L43.7285 32.7963ZM43.7285 34.9828H43.2285V34.9828L43.7285 34.9828ZM43.7284 42.2716H44.2284V41.7716L43.7284 41.7716V42.2716ZM43.7284 61.9494H43.2284H43.7284ZM24.0506 42.2716V42.7716V42.2716ZM43.7284 59.7629H43.2284H43.7284ZM26.2371 42.2716V42.7716V42.2716ZM43.7284 57.5765H43.2284H43.7284ZM28.4235 42.2716V42.7716V42.2716ZM43.7284 55.3901H43.2284H43.7284ZM30.6099 42.2716V42.7716H30.6099L30.6099 42.2716ZM43.7284 53.2037H43.2284H43.7284ZM32.7963 42.2716V42.7716V42.2716ZM43.7284 51.0173H43.2284H43.7284ZM34.9827 42.2716V42.7716V42.2716ZM86.4993 21.8642C86.4993 9.5128 76.4865 -0.5 64.1351 -0.5V0.5C75.9342 0.5 85.4993 10.0651 85.4993 21.8642H86.4993ZM64.1351 -0.5C51.7836 -0.5 41.7708 9.5128 41.7708 21.8642H42.7708C42.7708 10.0651 52.3359 0.5 64.1351 0.5V-0.5ZM41.7708 21.8642V43.7284H42.7708V21.8642H41.7708ZM42.2708 44.2284H64.1351V43.2284H42.2708V44.2284ZM64.1351 44.2284C76.4865 44.2284 86.4993 34.2156 86.4993 21.8642H85.4993C85.4993 33.6634 75.9342 43.2284 64.1351 43.2284V44.2284ZM82.1265 24.0506C82.1265 12.9068 73.0926 3.87284 61.9487 3.87284V4.87284C72.5403 4.87284 81.1265 13.459 81.1265 24.0506H82.1265ZM61.9487 3.87284C50.8048 3.87284 41.7709 12.9068 41.7709 24.0506H42.7709C42.7709 13.459 51.3571 4.87284 61.9487 4.87284V3.87284ZM41.7709 24.0506L41.7708 43.7284H42.7708L42.7709 24.0506L41.7709 24.0506ZM42.2708 44.2284H61.9487V43.2284H42.2708V44.2284ZM61.9487 44.2284C73.0926 44.2284 82.1265 35.1945 82.1265 24.0506H81.1265C81.1265 34.6423 72.5403 43.2284 61.9487 43.2284V44.2284ZM77.7536 26.2371C77.7536 16.3007 69.6986 8.24569 59.7622 8.24569V9.24569C69.1463 9.24569 76.7536 16.853 76.7536 26.2371H77.7536ZM59.7622 8.24569C49.8259 8.24569 41.7709 16.3007 41.7709 26.2371H42.7709C42.7709 16.853 50.3782 9.24569 59.7622 9.24569V8.24569ZM41.7709 26.2371L41.7708 43.7284H42.7708L42.7709 26.2371H41.7709ZM42.2708 44.2284L59.7622 44.2285V43.2285L42.2708 43.2284V44.2284ZM59.7622 44.2285C69.6986 44.2285 77.7536 36.1734 77.7536 26.2371H76.7536C76.7536 35.6211 69.1463 43.2285 59.7622 43.2285V44.2285ZM73.3808 28.4235C73.3808 19.6947 66.3046 12.6185 57.5758 12.6185V13.6185C65.7524 13.6185 72.3808 20.2469 72.3808 28.4235H73.3808ZM57.5758 12.6185C48.847 12.6185 41.7709 19.6947 41.7709 28.4235H42.7709C42.7709 20.2469 49.3993 13.6185 57.5758 13.6185V12.6185ZM41.7709 28.4235L41.7708 43.7284H42.7708L42.7709 28.4235H41.7709ZM42.2708 44.2284H57.5758V43.2284H42.2708V44.2284ZM57.5758 44.2284C66.3046 44.2284 73.3808 37.1523 73.3808 28.4235H72.3808C72.3808 36.6 65.7524 43.2284 57.5758 43.2284V44.2284ZM69.0079 30.6099C69.0079 23.0886 62.9107 16.9914 55.3894 16.9914V17.9914C62.3584 17.9914 68.0079 23.6409 68.0079 30.6099H69.0079ZM55.3894 16.9914C47.8681 16.9914 41.7709 23.0886 41.7709 30.6099H42.7709C42.7709 23.6409 48.4204 17.9914 55.3894 17.9914V16.9914ZM41.7709 30.6099L41.7708 43.7284H42.7708L42.7709 30.6099L41.7709 30.6099ZM42.2708 44.2284H55.3894V43.2284H42.2708V44.2284ZM55.3894 44.2284C62.9107 44.2284 69.0079 38.1312 69.0079 30.6099H68.0079C68.0079 37.5789 62.3584 43.2284 55.3894 43.2284V44.2284ZM64.6351 32.7963C64.6351 26.4826 59.5167 21.3642 53.203 21.3642V22.3642C58.9645 22.3642 63.6351 27.0348 63.6351 32.7963H64.6351ZM53.203 21.3642C46.8892 21.3642 41.7709 26.4826 41.7709 32.7963H42.7709C42.7709 27.0348 47.4415 22.3642 53.203 22.3642V21.3642ZM41.7709 32.7963L41.7708 43.7284H42.7708L42.7709 32.7963L41.7709 32.7963ZM42.2708 44.2284H53.203V43.2284H42.2708V44.2284ZM53.203 44.2284C59.5167 44.2284 64.6351 39.1101 64.6351 32.7963H63.6351C63.6351 38.5578 58.9645 43.2284 53.203 43.2284V44.2284ZM60.2622 34.9828C60.2622 29.8765 56.1228 25.7371 51.0165 25.7371V26.7371C55.5705 26.7371 59.2622 30.4288 59.2622 34.9828H60.2622ZM51.0165 25.7371C45.9103 25.7371 41.7709 29.8765 41.7709 34.9828H42.7709C42.7709 30.4288 46.4626 26.7371 51.0165 26.7371V25.7371ZM41.7709 34.9828L41.7708 43.7284H42.7708L42.7709 34.9828L41.7709 34.9828ZM42.2708 44.2284H51.0165V43.2284H42.2708V44.2284ZM51.0165 44.2284C56.1228 44.2284 60.2622 40.089 60.2622 34.9828H59.2622C59.2622 39.5367 55.5705 43.2284 51.0165 43.2284V44.2284ZM85.4993 64.1358C85.4993 75.9349 75.9342 85.5 64.1351 85.5V86.5C76.4865 86.5 86.4993 76.4872 86.4993 64.1358H85.4993ZM64.1351 85.5C52.3359 85.5 42.7709 75.9349 42.7709 64.1358H41.7709C41.7709 76.4872 51.7837 86.5 64.1351 86.5V85.5ZM42.7709 64.1358V42.2716H41.7709V64.1358H42.7709ZM42.2709 42.7716H64.1351V41.7716H42.2709V42.7716ZM64.1351 42.7716C75.9342 42.7716 85.4993 52.3366 85.4993 64.1358H86.4993C86.4993 51.7844 76.4865 41.7716 64.1351 41.7716V42.7716ZM81.1265 61.9494C81.1265 72.541 72.5403 81.1272 61.9487 81.1272V82.1272C73.0926 82.1272 82.1265 73.0933 82.1265 61.9494H81.1265ZM61.9487 81.1272C51.3571 81.1272 42.7709 72.541 42.7709 61.9494H41.7709C41.7709 73.0933 50.8048 82.1272 61.9487 82.1272V81.1272ZM42.7709 61.9494L42.7709 42.2716L41.7709 42.2716L41.7709 61.9494H42.7709ZM42.2709 42.7716L61.9487 42.7716V41.7716L42.2709 41.7716L42.2709 42.7716ZM61.9487 42.7716C72.5403 42.7716 81.1265 51.3578 81.1265 61.9494H82.1265C82.1265 50.8055 73.0926 41.7716 61.9487 41.7716V42.7716ZM76.7536 59.7629C76.7536 69.147 69.1463 76.7543 59.7623 76.7543V77.7543C69.6986 77.7543 77.7536 69.6993 77.7536 59.7629H76.7536ZM59.7623 76.7543C50.3782 76.7543 42.7709 69.147 42.7709 59.7629H41.7709C41.7709 69.6993 49.8259 77.7543 59.7623 77.7543V76.7543ZM42.7709 59.7629L42.7709 42.2716L41.7709 42.2716L41.7709 59.7629H42.7709ZM42.2709 42.7716L59.7623 42.7716V41.7716L42.2709 41.7716L42.2709 42.7716ZM59.7623 42.7716C69.1463 42.7716 76.7536 50.3789 76.7536 59.7629H77.7536C77.7536 49.8266 69.6986 41.7716 59.7623 41.7716V42.7716ZM72.3808 57.5765C72.3808 65.7531 65.7524 72.3815 57.5758 72.3815V73.3815C66.3047 73.3815 73.3808 66.3054 73.3808 57.5765H72.3808ZM57.5758 72.3815C49.3993 72.3815 42.7709 65.7531 42.7709 57.5765H41.7709C41.7709 66.3054 48.847 73.3815 57.5758 73.3815V72.3815ZM42.7709 57.5765L42.7709 42.2716L41.7709 42.2716L41.7709 57.5765H42.7709ZM42.2709 42.7716L57.5758 42.7716V41.7716L42.2709 41.7716L42.2709 42.7716ZM57.5758 42.7716C65.7524 42.7716 72.3808 49.4 72.3808 57.5765H73.3808C73.3808 48.8477 66.3047 41.7716 57.5758 41.7716V42.7716ZM68.0079 55.3901C68.0079 62.3591 62.3584 68.0086 55.3894 68.0086V69.0086C62.9107 69.0086 69.0079 62.9114 69.0079 55.3901H68.0079ZM55.3894 68.0086C48.4204 68.0086 42.7709 62.3591 42.7709 55.3901H41.7709C41.7709 62.9114 47.8681 69.0086 55.3894 69.0086V68.0086ZM42.7709 55.3901L42.7709 42.2716L41.7709 42.2716L41.7709 55.3901H42.7709ZM42.2709 42.7716L55.3894 42.7716V41.7716L42.2709 41.7716L42.2709 42.7716ZM55.3894 42.7716C62.3584 42.7716 68.0079 48.4211 68.0079 55.3901H69.0079C69.0079 47.8688 62.9107 41.7716 55.3894 41.7716V42.7716ZM63.6351 53.2037C63.6351 58.9652 58.9645 63.6358 53.203 63.6358V64.6358C59.5168 64.6358 64.6351 59.5175 64.6351 53.2037H63.6351ZM53.203 63.6358C47.4415 63.6358 42.7709 58.9652 42.7709 53.2037H41.7709C41.7709 59.5175 46.8892 64.6358 53.203 64.6358V63.6358ZM42.7709 53.2037L42.7709 42.2716L41.7709 42.2716L41.7709 53.2037H42.7709ZM42.2709 42.7716L53.203 42.7716V41.7716L42.2709 41.7716L42.2709 42.7716ZM53.203 42.7716C58.9645 42.7716 63.6351 47.4422 63.6351 53.2037H64.6351C64.6351 46.8899 59.5168 41.7716 53.203 41.7716V42.7716ZM59.2623 51.0173C59.2623 55.5712 55.5705 59.2629 51.0166 59.2629V60.2629C56.1228 60.2629 60.2623 56.1235 60.2623 51.0173H59.2623ZM51.0166 59.2629C46.4626 59.2629 42.7709 55.5712 42.7709 51.0173H41.7709C41.7709 56.1235 45.9103 60.2629 51.0166 60.2629V59.2629ZM42.7709 51.0173L42.7709 42.2716L41.7709 42.2716L41.7709 51.0173H42.7709ZM42.2709 42.7716L51.0166 42.7716L51.0166 41.7716L42.2709 41.7716L42.2709 42.7716ZM51.0166 42.7716C55.5705 42.7716 59.2623 46.4633 59.2623 51.0173H60.2623C60.2623 45.911 56.1228 41.7716 51.0166 41.7716V42.7716ZM0.500016 21.8642C0.500016 10.0651 10.0651 0.5 21.8642 0.5V-0.5C9.51282 -0.5 -0.499984 9.5128 -0.499984 21.8642H0.500016ZM21.8642 0.5C33.6634 0.5 43.2285 10.0651 43.2285 21.8642H44.2285C44.2285 9.5128 34.2157 -0.5 21.8642 -0.5V0.5ZM43.2285 21.8642V43.7284H44.2285V21.8642H43.2285ZM43.7285 43.2284H21.8642V44.2284H43.7285V43.2284ZM21.8642 43.2284C10.0651 43.2284 0.500016 33.6634 0.500016 21.8642H-0.499984C-0.499984 34.2156 9.51282 44.2284 21.8642 44.2284V43.2284ZM4.87285 24.0506C4.87285 13.459 13.459 4.87284 24.0506 4.87284V3.87284C12.9068 3.87284 3.87285 12.9068 3.87285 24.0506H4.87285ZM24.0506 4.87284C34.6423 4.87284 43.2285 13.459 43.2285 24.0506H44.2285C44.2285 12.9068 35.1945 3.87284 24.0506 3.87284V4.87284ZM43.2285 24.0506L43.2285 43.7284H44.2285L44.2285 24.0506L43.2285 24.0506ZM43.7285 43.2284H24.0506V44.2284H43.7285V43.2284ZM24.0506 43.2284C13.459 43.2284 4.87285 34.6423 4.87285 24.0506H3.87285C3.87285 35.1945 12.9068 44.2284 24.0506 44.2284V43.2284ZM9.24569 26.2371C9.24569 16.853 16.853 9.24569 26.2371 9.24569V8.24569C16.3007 8.24569 8.24569 16.3007 8.24569 26.2371H9.24569ZM26.2371 9.24569C35.6212 9.24569 43.2285 16.853 43.2285 26.2371H44.2285C44.2285 16.3007 36.1734 8.24569 26.2371 8.24569V9.24569ZM43.2285 26.2371L43.2285 43.7284H44.2285L44.2285 26.2371H43.2285ZM43.7285 43.2284L26.2371 43.2285V44.2285L43.7285 44.2284V43.2284ZM26.2371 43.2285C16.853 43.2285 9.24569 35.6211 9.24569 26.2371H8.24569C8.24569 36.1734 16.3007 44.2285 26.2371 44.2285V43.2285ZM13.6185 28.4235C13.6185 20.2469 20.2469 13.6185 28.4235 13.6185V12.6185C19.6947 12.6185 12.6185 19.6947 12.6185 28.4235H13.6185ZM28.4235 13.6185C36.6 13.6185 43.2285 20.2469 43.2285 28.4235H44.2285C44.2285 19.6947 37.1523 12.6185 28.4235 12.6185V13.6185ZM43.2285 28.4235L43.2285 43.7284H44.2285L44.2285 28.4235H43.2285ZM43.7285 43.2284H28.4235V44.2284H43.7285V43.2284ZM28.4235 43.2284C20.2469 43.2284 13.6185 36.6 13.6185 28.4235H12.6185C12.6185 37.1523 19.6947 44.2284 28.4235 44.2284V43.2284ZM17.9914 30.6099C17.9914 23.6409 23.6409 17.9914 30.6099 17.9914V16.9914C23.0886 16.9914 16.9914 23.0886 16.9914 30.6099H17.9914ZM30.6099 17.9914C37.5789 17.9914 43.2285 23.6409 43.2285 30.6099H44.2285C44.2285 23.0886 38.1312 16.9914 30.6099 16.9914V17.9914ZM43.2285 30.6099L43.2285 43.7284H44.2285L44.2285 30.6099L43.2285 30.6099ZM43.7285 43.2284H30.6099V44.2284H43.7285V43.2284ZM30.6099 43.2284C23.6409 43.2284 17.9914 37.5789 17.9914 30.6099H16.9914C16.9914 38.1312 23.0886 44.2284 30.6099 44.2284V43.2284ZM22.3642 32.7963C22.3642 27.0348 27.0348 22.3642 32.7963 22.3642V21.3642C26.4826 21.3642 21.3642 26.4826 21.3642 32.7963H22.3642ZM32.7963 22.3642C38.5578 22.3642 43.2285 27.0348 43.2285 32.7963H44.2285C44.2285 26.4826 39.1101 21.3642 32.7963 21.3642V22.3642ZM43.2285 32.7963L43.2285 43.7284H44.2285L44.2285 32.7963L43.2285 32.7963ZM43.7285 43.2284H32.7963V44.2284H43.7285V43.2284ZM32.7963 43.2284C27.0348 43.2284 22.3642 38.5578 22.3642 32.7963H21.3642C21.3642 39.1101 26.4826 44.2284 32.7963 44.2284V43.2284ZM26.7371 34.9828C26.7371 30.4288 30.4288 26.7371 34.9828 26.7371V25.7371C29.8765 25.7371 25.7371 29.8765 25.7371 34.9828H26.7371ZM34.9828 26.7371C39.5367 26.7371 43.2285 30.4288 43.2285 34.9828H44.2285C44.2285 29.8765 40.089 25.7371 34.9828 25.7371V26.7371ZM43.2285 34.9828L43.2285 43.7284H44.2285L44.2285 34.9828L43.2285 34.9828ZM43.7285 43.2284H34.9828V44.2284H43.7285V43.2284ZM34.9828 43.2284C30.4288 43.2284 26.7371 39.5367 26.7371 34.9828H25.7371C25.7371 40.089 29.8765 44.2284 34.9828 44.2284V43.2284ZM-0.5 64.1358C-0.5 76.4872 9.5128 86.5 21.8642 86.5V85.5C10.0651 85.5 0.5 75.9349 0.5 64.1358H-0.5ZM21.8642 86.5C34.2156 86.5 44.2284 76.4872 44.2284 64.1358H43.2284C43.2284 75.9349 33.6634 85.5 21.8642 85.5V86.5ZM44.2284 64.1358V42.2716H43.2284V64.1358H44.2284ZM43.7284 41.7716H21.8642V42.7716H43.7284V41.7716ZM21.8642 41.7716C9.5128 41.7716 -0.5 51.7844 -0.5 64.1358H0.5C0.5 52.3366 10.0651 42.7716 21.8642 42.7716V41.7716ZM3.87283 61.9494C3.87283 73.0933 12.9067 82.1272 24.0506 82.1272V81.1272C13.459 81.1272 4.87283 72.541 4.87283 61.9494H3.87283ZM24.0506 82.1272C35.1945 82.1272 44.2284 73.0933 44.2284 61.9494H43.2284C43.2284 72.541 34.6422 81.1272 24.0506 81.1272V82.1272ZM44.2284 61.9494L44.2284 42.2716L43.2284 42.2716L43.2284 61.9494H44.2284ZM43.7284 41.7716L24.0506 41.7716V42.7716L43.7284 42.7716V41.7716ZM24.0506 41.7716C12.9067 41.7716 3.87283 50.8055 3.87283 61.9494H4.87283C4.87283 51.3578 13.459 42.7716 24.0506 42.7716V41.7716ZM8.24568 59.7629C8.24568 69.6993 16.3007 77.7543 26.2371 77.7543V76.7543C16.853 76.7543 9.24568 69.147 9.24568 59.7629H8.24568ZM26.2371 77.7543C36.1734 77.7543 44.2284 69.6993 44.2284 59.7629H43.2284C43.2284 69.147 35.6211 76.7543 26.2371 76.7543V77.7543ZM44.2284 59.7629L44.2284 42.2716L43.2284 42.2716L43.2284 59.7629H44.2284ZM43.7284 41.7716L26.2371 41.7716V42.7716L43.7284 42.7716V41.7716ZM26.2371 41.7716C16.3007 41.7716 8.24568 49.8266 8.24568 59.7629H9.24568C9.24568 50.3789 16.853 42.7716 26.2371 42.7716V41.7716ZM12.6185 57.5765C12.6185 66.3054 19.6946 73.3815 28.4235 73.3815V72.3815C20.2469 72.3815 13.6185 65.7531 13.6185 57.5765H12.6185ZM28.4235 73.3815C37.1523 73.3815 44.2284 66.3054 44.2284 57.5765H43.2284C43.2284 65.7531 36.6 72.3815 28.4235 72.3815V73.3815ZM44.2284 57.5765L44.2284 42.2716L43.2284 42.2716L43.2284 57.5765H44.2284ZM43.7284 41.7716L28.4235 41.7716V42.7716L43.7284 42.7716V41.7716ZM28.4235 41.7716C19.6946 41.7716 12.6185 48.8477 12.6185 57.5765H13.6185C13.6185 49.4 20.2469 42.7716 28.4235 42.7716V41.7716ZM16.9914 55.3901C16.9914 62.9114 23.0886 69.0086 30.6099 69.0086V68.0086C23.6409 68.0086 17.9914 62.3591 17.9914 55.3901H16.9914ZM30.6099 69.0086C38.1312 69.0086 44.2284 62.9114 44.2284 55.3901H43.2284C43.2284 62.3591 37.5789 68.0086 30.6099 68.0086V69.0086ZM44.2284 55.3901L44.2284 42.2716L43.2284 42.2716L43.2284 55.3901H44.2284ZM43.7284 41.7716L30.6099 41.7716L30.6099 42.7716L43.7284 42.7716V41.7716ZM30.6099 41.7716C23.0886 41.7716 16.9914 47.8688 16.9914 55.3901H17.9914C17.9914 48.4211 23.6409 42.7716 30.6099 42.7716V41.7716ZM21.3642 53.2037C21.3642 59.5175 26.4825 64.6358 32.7963 64.6358V63.6358C27.0348 63.6358 22.3642 58.9652 22.3642 53.2037H21.3642ZM32.7963 64.6358C39.1101 64.6358 44.2284 59.5175 44.2284 53.2037H43.2284C43.2284 58.9652 38.5578 63.6358 32.7963 63.6358V64.6358ZM44.2284 53.2037L44.2284 42.2716L43.2284 42.2716L43.2284 53.2037H44.2284ZM43.7284 41.7716L32.7963 41.7716V42.7716L43.7284 42.7716V41.7716ZM32.7963 41.7716C26.4825 41.7716 21.3642 46.8899 21.3642 53.2037H22.3642C22.3642 47.4422 27.0348 42.7716 32.7963 42.7716V41.7716ZM25.7371 51.0173C25.7371 56.1235 29.8765 60.2629 34.9827 60.2629V59.2629C30.4288 59.2629 26.7371 55.5712 26.7371 51.0173H25.7371ZM34.9827 60.2629C40.089 60.2629 44.2284 56.1235 44.2284 51.0173H43.2284C43.2284 55.5712 39.5367 59.2629 34.9827 59.2629V60.2629ZM44.2284 51.0173L44.2284 42.2716L43.2284 42.2716L43.2284 51.0173H44.2284ZM43.7284 41.7716L34.9827 41.7716V42.7716L43.7284 42.7716V41.7716ZM34.9827 41.7716C29.8765 41.7716 25.7371 45.911 25.7371 51.0173H26.7371C26.7371 46.4633 30.4288 42.7716 34.9827 42.7716V41.7716Z" fill="#111111" mask="url(#path-1-inside-1_1_12087)"/>
</svg>
